<?xml version="1.0" encoding="UTF-8" standalone="no"?>
<svg width="46px" height="46px" viewBox="0 0 46 46" version="1.1" xmlns="http://www.w3.org/2000/svg" xmlns:xlink="http://www.w3.org/1999/xlink" xmlns:sketch="http://www.bohemiancoding.com/sketch/ns">
    <!-- Generator: Sketch 3.3.1 (12002) - http://www.bohemiancoding.com/sketch -->
    <title>marker</title>
    <desc>Created with Sketch.</desc>
    <defs></defs>
    <g id="Page-1" stroke="none" stroke-width="1" fill="none" fill-rule="evenodd" sketch:type="MSPage">
        <g id="marker" sketch:type="MSLayerGroup">
            <circle id="Oval-2" fill="#00407E" sketch:type="MSShapeGroup" cx="23" cy="23" r="23"></circle>
            <circle id="Oval-3" fill="#FFFFFF" sketch:type="MSShapeGroup" cx="23" cy="23" r="19"></circle>
            <circle id="Oval-4" fill="#00407E" sketch:type="MSShapeGroup" cx="23" cy="23" r="16"></circle>
            <path d="M31.75,33.25 C27.05,32.95 24.25,30.95 24.25,30.95 L25.65,29.65 L20.25,29.65 L21.65,30.95 C21.65,30.95 19.05,33.15 13.95,33.25 L12.55,30.15 C14.95,30.15 17.65,29.95 18.65,29.65 L14.25,29.65 L14.25,20.85 L14.95,20.85 L12.75,19.25 C13.95,17.15 13.95,15.75 13.95,13.65 L13.95,13.15 L14.85,13.15 C18.75,13.15 19.95,13.15 21.95,12.75 L23.55,15.55 C21.75,15.95 20.15,16.05 17.65,16.05 L17.65,16.65 L22.95,16.65 L22.95,19.15 C23.75,17.65 23.75,15.55 23.75,14.05 L23.75,13.25 L24.65,13.25 C28.55,13.25 29.75,13.25 31.75,12.85 L33.45,15.65 C33.45,15.65 30.85,16.15 27.45,16.15 L27.45,16.75 L33.15,16.75 L33.15,19.55 L30.95,19.55 L30.95,21.05 L31.55,21.05 L31.55,29.85 L27.45,29.85 C28.55,30.15 31.05,30.35 33.15,30.35 L31.75,33.25 L31.75,33.25 Z M17.95,19.35 L17.15,19.35 C17.05,19.85 16.85,20.35 16.65,20.85 L18.05,20.85 L18.05,19.35 L17.95,19.35 L17.95,19.35 Z M27.95,22.95 L17.85,22.95 L17.85,23.55 L27.95,23.55 L27.95,22.95 L27.95,22.95 Z M27.95,25.05 L17.85,25.05 L17.85,25.65 L27.95,25.65 L27.95,25.05 L27.95,25.05 Z M27.95,27.15 L17.85,27.15 L17.85,27.75 L27.95,27.75 L27.95,27.15 L27.95,27.15 Z M22.45,19.55 L22.55,19.35 L21.35,19.35 L21.35,20.85 L23.95,20.85 L22.45,19.55 L22.45,19.55 Z M27.55,19.35 L26.75,19.35 C26.65,19.85 26.45,20.35 26.25,20.85 L27.45,20.85 L27.55,19.35 L27.55,19.35 Z" id="Shape-Copy" fill="#FFFFFF" sketch:type="MSShapeGroup"></path>
        </g>
    </g>
</svg>